<svg width="33" height="33" viewBox="0 0 33 33" fill="none" xmlns="http://www.w3.org/2000/svg">
<path d="M1 2.9375C1 2.42364 1.20413 1.93083 1.56748 1.56748C1.93083 1.20413 2.42364 1 2.9375 1H10.6875C11.2014 1 11.6942 1.20413 12.0575 1.56748C12.4209 1.93083 12.625 2.42364 12.625 2.9375V12.625C12.625 13.1389 12.4209 13.6317 12.0575 13.995C11.6942 14.3584 11.2014 14.5625 10.6875 14.5625H2.9375C2.42364 14.5625 1.93083 14.3584 1.56748 13.995C1.20413 13.6317 1 13.1389 1 12.625V2.9375ZM20.375 2.9375C20.375 2.42364 20.5791 1.93083 20.9425 1.56748C21.3058 1.20413 21.7986 1 22.3125 1H30.0625C30.5764 1 31.0692 1.20413 31.4325 1.56748C31.7959 1.93083 32 2.42364 32 2.9375V6.8125C32 7.32636 31.7959 7.81917 31.4325 8.18252C31.0692 8.54587 30.5764 8.75 30.0625 8.75H22.3125C21.7986 8.75 21.3058 8.54587 20.9425 8.18252C20.5791 7.81917 20.375 7.32636 20.375 6.8125V2.9375ZM1 24.25C1 23.7361 1.20413 23.2433 1.56748 22.88C1.93083 22.5166 2.42364 22.3125 2.9375 22.3125H10.6875C11.2014 22.3125 11.6942 22.5166 12.0575 22.88C12.4209 23.2433 12.625 23.7361 12.625 24.25V30.0625C12.625 30.5764 12.4209 31.0692 12.0575 31.4325C11.6942 31.7959 11.2014 32 10.6875 32H2.9375C2.42364 32 1.93083 31.7959 1.56748 31.4325C1.20413 31.0692 1 30.5764 1 30.0625V24.25ZM20.375 18.4375C20.375 17.9236 20.5791 17.4308 20.9425 17.0675C21.3058 16.7041 21.7986 16.5 22.3125 16.5H30.0625C30.5764 16.5 31.0692 16.7041 31.4325 17.0675C31.7959 17.4308 32 17.9236 32 18.4375V30.0625C32 30.5764 31.7959 31.0692 31.4325 31.4325C31.0692 31.7959 30.5764 32 30.0625 32H22.3125C21.7986 32 21.3058 31.7959 20.9425 31.4325C20.5791 31.0692 20.375 30.5764 20.375 30.0625V18.4375Z" stroke="#F5F5F5" stroke-width="2"/>
</svg>
