<svg width="33" height="33" viewBox="0 0 33 33" fill="none" xmlns="http://www.w3.org/2000/svg">
<path d="M25.2656 28.875C23.7964 28.9069 22.3744 28.355 21.3113 27.3404C20.2481 26.3258 19.6305 24.9311 19.5938 23.462C19.6163 22.4242 19.9285 21.4134 20.4951 20.5436L24.2241 14.9924C24.3389 14.8216 24.4939 14.6816 24.6756 14.5849C24.8572 14.4881 25.0598 14.4375 25.2656 14.4375C25.4714 14.4375 25.6741 14.4881 25.8557 14.5849C26.0373 14.6816 26.1924 14.8216 26.3072 14.9924L29.9681 20.4343C30.5733 21.3305 30.9096 22.381 30.9375 23.462C30.9007 24.9311 30.2831 26.3258 29.22 27.3404C28.1568 28.355 26.7349 28.9069 25.2656 28.875ZM25.2656 17.1394L22.2379 21.6429C21.8774 22.1828 21.6759 22.8131 21.6562 23.462C21.7251 24.3721 22.1352 25.2227 22.8045 25.8433C23.4738 26.4638 24.3529 26.8087 25.2656 26.8087C26.1784 26.8087 27.0574 26.4638 27.7267 25.8433C28.396 25.2227 28.8062 24.3721 28.875 23.462C28.8508 22.7706 28.625 22.1014 28.2253 21.5367L25.2656 17.1394Z" fill="#000000"/>
<path d="M5.15625 14.4375C5.72579 14.4375 6.1875 13.9758 6.1875 13.4062C6.1875 12.8367 5.72579 12.375 5.15625 12.375C4.58671 12.375 4.125 12.8367 4.125 13.4062C4.125 13.9758 4.58671 14.4375 5.15625 14.4375Z" fill="#000000"/>
<path d="M11.3438 20.625C11.9133 20.625 12.375 20.1633 12.375 19.5938C12.375 19.0242 11.9133 18.5625 11.3438 18.5625C10.7742 18.5625 10.3125 19.0242 10.3125 19.5938C10.3125 20.1633 10.7742 20.625 11.3438 20.625Z" fill="#000000"/>
<path d="M15.4688 26.8125C16.0383 26.8125 16.5 26.3508 16.5 25.7812C16.5 25.2117 16.0383 24.75 15.4688 24.75C14.8992 24.75 14.4375 25.2117 14.4375 25.7812C14.4375 26.3508 14.8992 26.8125 15.4688 26.8125Z" fill="#000000"/>
<path d="M17.5312 16.5C18.1008 16.5 18.5625 16.0383 18.5625 15.4688C18.5625 14.8992 18.1008 14.4375 17.5312 14.4375C16.9617 14.4375 16.5 14.8992 16.5 15.4688C16.5 16.0383 16.9617 16.5 17.5312 16.5Z" fill="#000000"/>
<path d="M13.4062 12.375C13.9758 12.375 14.4375 11.9133 14.4375 11.3438C14.4375 10.7742 13.9758 10.3125 13.4062 10.3125C12.8367 10.3125 12.375 10.7742 12.375 11.3438C12.375 11.9133 12.8367 12.375 13.4062 12.375Z" fill="#000000"/>
<path d="M27.8438 12.375C28.4133 12.375 28.875 11.9133 28.875 11.3438C28.875 10.7742 28.4133 10.3125 27.8438 10.3125C27.2742 10.3125 26.8125 10.7742 26.8125 11.3438C26.8125 11.9133 27.2742 12.375 27.8438 12.375Z" fill="#000000"/>
<path d="M9.28125 28.875C9.85079 28.875 10.3125 28.4133 10.3125 27.8438C10.3125 27.2742 9.85079 26.8125 9.28125 26.8125C8.71171 26.8125 8.25 27.2742 8.25 27.8438C8.25 28.4133 8.71171 28.875 9.28125 28.875Z" fill="#000000"/>
<path d="M3.09375 22.6875C3.66329 22.6875 4.125 22.2258 4.125 21.6562C4.125 21.0867 3.66329 20.625 3.09375 20.625C2.52421 20.625 2.0625 21.0867 2.0625 21.6562C2.0625 22.2258 2.52421 22.6875 3.09375 22.6875Z" fill="#000000"/>
<path d="M2.0625 6.1875H30.9375V8.25H2.0625V6.1875Z" fill="#000000"/>
</svg>
