<svg width="37" height="37" viewBox="0 0 37 37" fill="none" xmlns="http://www.w3.org/2000/svg">
<path d="M8.67188 12.7188C9.62974 12.7188 10.4062 11.9422 10.4062 10.9844C10.4062 10.0265 9.62974 9.25 8.67188 9.25C7.71401 9.25 6.9375 10.0265 6.9375 10.9844C6.9375 11.9422 7.71401 12.7188 8.67188 12.7188Z" fill="white"/>
<path d="M15.0312 16.1875C15.6698 16.1875 16.1875 15.6698 16.1875 15.0312C16.1875 14.3927 15.6698 13.875 15.0312 13.875C14.3927 13.875 13.875 14.3927 13.875 15.0312C13.875 15.6698 14.3927 16.1875 15.0312 16.1875Z" fill="white"/>
<path d="M25.4375 25.4375C26.0761 25.4375 26.5938 24.9198 26.5938 24.2812C26.5938 23.6427 26.0761 23.125 25.4375 23.125C24.7989 23.125 24.2812 23.6427 24.2812 24.2812C24.2812 24.9198 24.7989 25.4375 25.4375 25.4375Z" fill="white"/>
<path d="M28.9063 16.1875C27.3528 16.1876 25.8192 16.5363 24.4184 17.2079C23.0176 17.8795 21.7854 18.8568 20.8125 20.0679V15.0313C20.8128 13.2007 20.4143 11.392 19.6447 9.731L19.2331 8.83259L18.2815 9.09969C17.9773 9.19255 17.6617 9.24312 17.3438 9.25C16.4241 9.24908 15.5423 8.88333 14.892 8.23301C14.2417 7.5827 13.8759 6.70094 13.875 5.78125C13.882 5.46365 13.9326 5.14852 14.0253 4.84469L14.2936 3.89194L13.3952 3.47916C11.7338 2.70981 9.92466 2.31169 8.09376 2.3125H2.31251V10.4063C2.30855 13.1748 3.21631 15.8676 4.89558 18.0687L5.34536 18.5636L5.96973 18.5197C7.26284 18.4454 8.54801 18.7656 9.65512 19.4379C10.7622 20.1101 11.6391 21.1028 12.1695 22.2844L12.4251 22.8591L13.0471 22.9562C13.7031 23.0642 14.3665 23.1207 15.0313 23.125H18.5V34.6875H20.8125V30.0625H24.2813C27.0402 30.0594 29.6853 28.9621 31.6362 27.0112C33.5871 25.0603 34.6844 22.4152 34.6875 19.6563V16.1875H28.9063ZM13.9929 20.7512C13.2528 19.3778 12.1563 18.2292 10.8187 17.4261C9.48112 16.6231 7.95189 16.1952 6.39176 16.1875C5.23733 14.4808 4.62185 12.4668 4.62501 10.4063V4.625H8.09376C9.28674 4.62492 10.4706 4.83228 11.5926 5.23781C11.5719 5.41821 11.5619 5.59967 11.5625 5.78125C11.557 6.58771 11.7215 7.38628 12.0452 8.12494C12.369 8.8636 12.8447 9.52579 13.4413 10.0684C14.038 10.6109 14.7423 11.0217 15.5083 11.274C16.2743 11.5262 17.0849 11.6143 17.8872 11.5324C18.2927 12.6544 18.5001 13.8383 18.5 15.0313V20.8125H15.0313C14.6843 20.8116 14.3376 20.7911 13.9929 20.7512ZM32.375 19.6563C32.372 21.8019 31.5182 23.8588 30.001 25.376C28.4838 26.8932 26.4269 27.7469 24.2813 27.75H20.8125V26.5938C20.8155 24.8478 21.3822 23.1494 22.4282 21.7515C23.4743 20.3535 24.9438 19.3307 26.618 18.8353C26.5845 19.0706 26.5997 19.3103 26.6629 19.5395C26.726 19.7686 26.8357 19.9823 26.985 20.1673C27.1344 20.3522 27.3202 20.5044 27.5309 20.6143C27.7417 20.7243 27.9728 20.7896 28.2099 20.8063C28.447 20.8231 28.685 20.7908 28.9091 20.7115C29.1332 20.6322 29.3385 20.5076 29.5123 20.3454C29.6861 20.1833 29.8247 19.9871 29.9193 19.769C30.014 19.551 30.0627 19.3158 30.0625 19.0781C30.0602 18.8808 30.0242 18.6853 29.9561 18.5H32.375V19.6563Z" fill="white"/>
</svg>
