<svg width="41" height="41" viewBox="0 0 41 41" fill="none" xmlns="http://www.w3.org/2000/svg">
<path d="M20.4999 4.09998C19.4125 4.09998 18.3697 4.53194 17.6008 5.30084C16.8319 6.06974 16.3999 7.11259 16.3999 8.19998V16.4C16.3997 17.3091 16.7016 18.1925 17.2582 18.9113C17.8149 19.6301 18.5946 20.1435 19.4749 20.3708V25.2006L13.0256 18.7493C12.9303 18.654 12.8172 18.5784 12.6926 18.5268C12.5681 18.4752 12.4347 18.4487 12.2999 18.4487C12.1651 18.4487 12.0317 18.4752 11.9072 18.5268C11.7826 18.5784 11.6695 18.654 11.5742 18.7493C11.4789 18.8446 11.4033 18.9577 11.3517 19.0822C11.3002 19.2067 11.2736 19.3402 11.2736 19.475C11.2736 19.6097 11.3002 19.7432 11.3517 19.8677C11.4033 19.9922 11.4789 20.1054 11.5742 20.2007L19.4749 28.0993V29.725C19.4749 29.9968 19.5829 30.2575 19.7751 30.4498C19.9673 30.642 20.2281 30.75 20.4999 30.75C20.7717 30.75 21.0325 30.642 21.2247 30.4498C21.4169 30.2575 21.5249 29.9968 21.5249 29.725V28.0993L29.4256 20.2007C29.6181 20.0082 29.7262 19.7472 29.7262 19.475C29.7262 19.2028 29.6181 18.9417 29.4256 18.7493C29.2331 18.5568 28.9721 18.4487 28.6999 18.4487C28.4277 18.4487 28.1667 18.5568 27.9742 18.7493L21.5249 25.2006V20.3708C22.4052 20.1435 23.1849 19.6301 23.7416 18.9113C24.2982 18.1925 24.6001 17.3091 24.5999 16.4V8.19998C24.5999 7.11259 24.1679 6.06974 23.399 5.30084C22.6301 4.53194 21.5873 4.09998 20.4999 4.09998ZM18.4499 8.19998C18.4499 7.65628 18.6659 7.13486 19.0503 6.75041C19.4348 6.36596 19.9562 6.14998 20.4999 6.14998C21.0436 6.14998 21.565 6.36596 21.9495 6.75041C22.3339 7.13486 22.5499 7.65628 22.5499 8.19998V16.4C22.5499 16.9437 22.3339 17.4651 21.9495 17.8495C21.565 18.234 21.0436 18.45 20.4999 18.45C19.9562 18.45 19.4348 18.234 19.0503 17.8495C18.6659 17.4651 18.4499 16.9437 18.4499 16.4V8.19998ZM10.7091 26.1703C11.6193 25.8197 12.6443 25.5204 13.7554 25.2785L15.5102 27.0333C13.9645 27.2834 12.5869 27.6442 11.4451 28.0829C10.3094 28.5196 9.4586 29.0157 8.91125 29.5138C8.3639 30.012 8.1999 30.4302 8.1999 30.75C8.1999 31.0698 8.3639 31.488 8.91125 31.9861C9.4586 32.4843 10.3094 32.9804 11.4451 33.417C13.7144 34.2883 16.9124 34.85 20.4999 34.85C24.0874 34.85 27.2875 34.2883 29.5548 33.417C30.6905 32.9804 31.5412 32.4843 32.0886 31.9861C32.6359 31.488 32.7999 31.0698 32.7999 30.75C32.7999 30.4302 32.6359 30.012 32.0886 29.5138C31.5412 29.0157 30.6905 28.5196 29.5548 28.0829C28.2392 27.5949 26.877 27.2431 25.4896 27.0333L27.2444 25.2785C28.3576 25.5204 29.3805 25.8197 30.2907 26.1682C31.5638 26.6602 32.6667 27.2691 33.4682 27.9968C34.2677 28.7246 34.8499 29.6532 34.8499 30.75C34.8499 31.8467 34.2677 32.7754 33.4682 33.5031C32.6687 34.2309 31.5638 34.8397 30.2907 35.3297C27.7344 36.3137 24.2719 36.9 20.4999 36.9C16.7279 36.9 13.2655 36.3137 10.7091 35.3297C9.43605 34.8397 8.33315 34.2309 7.5316 33.5031C6.7321 32.7754 6.1499 31.8447 6.1499 30.75C6.1499 29.6532 6.7321 28.7246 7.5316 27.9968C8.3311 27.2691 9.43605 26.6623 10.7091 26.1703Z" fill="#FFFFFF"/>
</svg>
