<svg width="38" height="38" viewBox="0 0 38 38" fill="none" xmlns="http://www.w3.org/2000/svg">
<path d="M27.5824 19.0304C27.5889 16.8845 26.7848 14.8153 25.3311 13.2369C23.8774 11.6584 21.8813 10.6871 19.7421 10.5174C17.603 10.3476 15.4786 10.9918 13.7941 12.3212C12.1096 13.6506 10.9892 15.567 10.6572 17.6871C11.3032 17.6351 11.9473 17.6326 12.5895 17.6795C12.773 16.7938 13.136 15.9551 13.6563 15.2153C14.1766 14.4754 14.843 13.8501 15.6144 13.3778C16.3858 12.9056 17.2458 12.5965 18.1413 12.4697C19.0369 12.3428 19.9489 12.4008 20.8211 12.6402C21.6933 12.8796 22.5072 13.2953 23.2125 13.8615C23.9178 14.4277 24.4995 15.1325 24.9218 15.9324C25.3441 16.7322 25.5979 17.6102 25.6676 18.5119C25.7373 19.4137 25.6214 20.3202 25.3271 21.1755C26.0681 21.0691 26.7787 20.8867 27.4266 20.6625C27.5304 20.133 27.5824 19.5902 27.5824 19.0304ZM9.64637 8.32385L9.51337 8.21365C9.31831 8.07817 9.07958 8.02066 8.84423 8.05246C8.60887 8.08426 8.39396 8.20306 8.24185 8.38545C8.08973 8.56784 8.01146 8.80059 8.02244 9.03783C8.03342 9.27507 8.13286 9.49959 8.30117 9.66715L9.93137 11.2974L10.0644 11.4076C10.2594 11.543 10.4982 11.6005 10.7335 11.5688C10.9689 11.537 11.1838 11.4182 11.3359 11.2358C11.488 11.0534 11.5663 10.8206 11.5553 10.5834C11.5443 10.3461 11.4449 10.1216 11.2766 9.95405L9.64637 8.32385ZM29.9042 9.53415C30.0375 9.339 30.0933 9.10115 30.0606 8.86707C30.028 8.63298 29.9093 8.41948 29.7276 8.26824C29.546 8.117 29.3145 8.0389 29.0784 8.04919C28.8423 8.05947 28.6185 8.1574 28.4507 8.32385L26.8186 9.95405L26.7084 10.0871C26.5751 10.2822 26.5193 10.5201 26.5519 10.7541C26.5846 10.9882 26.7033 11.2017 26.8849 11.353C27.0665 11.5042 27.298 11.5823 27.5341 11.572C27.7703 11.5617 27.9941 11.4638 28.1619 11.2974L29.794 9.66715L29.9042 9.53415ZM19.9881 4.62645C19.9458 4.39285 19.8176 4.18355 19.6287 4.03977C19.4398 3.89599 19.2039 3.82814 18.9674 3.84959C18.731 3.87104 18.5112 3.98023 18.3512 4.15567C18.1913 4.3311 18.1028 4.56006 18.1033 4.79745V7.10215L18.1185 7.27315C18.1608 7.50675 18.289 7.71605 18.4779 7.85984C18.6668 8.00362 18.9027 8.07147 19.1391 8.05002C19.3755 8.02857 19.5954 7.91937 19.7553 7.74394C19.9152 7.56851 20.0037 7.33955 20.0033 7.10215V4.79555L19.9881 4.62645ZM7.10607 22.6841C9.11247 21.5897 10.9745 21.2895 12.8004 21.5175C14.651 21.7512 16.5244 22.534 18.5194 23.6987C20.8051 25.0306 23.429 25.2738 25.804 24.9451C28.1752 24.6164 30.383 23.7082 31.903 22.6233C32.1081 22.4766 32.2465 22.2545 32.2878 22.0058C32.3292 21.7571 32.27 21.5021 32.1234 21.2971C31.9767 21.092 31.7546 20.9535 31.5059 20.9122C31.2572 20.8709 31.0023 20.93 30.7972 21.0767C29.547 21.9697 27.6318 22.7734 25.5437 23.0622C23.4594 23.351 21.2953 23.1192 19.477 22.0571C17.3718 20.8297 15.2457 19.9101 13.036 19.6327C10.8035 19.3534 8.54247 19.7353 6.19597 21.0159C6.08644 21.0756 5.98974 21.1564 5.91141 21.2535C5.83309 21.3506 5.77465 21.4622 5.73946 21.5819C5.70426 21.7016 5.69298 21.8271 5.70627 21.9512C5.71957 22.0752 5.75716 22.1955 5.81692 22.305C5.93761 22.5262 6.14123 22.6904 6.38299 22.7615C6.5027 22.7967 6.62817 22.808 6.75224 22.7947C6.8763 22.7814 6.99654 22.7438 7.10607 22.6841ZM7.10607 26.4841C9.11247 25.3897 10.9745 25.0895 12.8004 25.3175C14.651 25.5512 16.5244 26.334 18.5194 27.4987C20.8051 28.8306 23.429 29.0738 25.804 28.7451C28.1752 28.4164 30.383 27.5082 31.903 26.4233C32.1081 26.2766 32.2465 26.0545 32.2878 25.8058C32.3292 25.5571 32.27 25.3021 32.1234 25.0971C31.9767 24.892 31.7546 24.7535 31.5059 24.7122C31.2572 24.6709 31.0023 24.73 30.7972 24.8767C29.547 25.7697 27.6318 26.5734 25.5437 26.8622C23.4594 27.151 21.2953 26.9192 19.477 25.8571C17.3718 24.6297 15.2457 23.7101 13.036 23.4327C10.8035 23.1534 8.54247 23.5353 6.19597 24.8159C5.97476 24.9365 5.81054 25.1402 5.73946 25.3819C5.66837 25.6237 5.69624 25.8838 5.81692 26.105C5.93761 26.3262 6.14123 26.4904 6.38299 26.5615C6.62476 26.6326 6.88486 26.6047 7.10607 26.4841ZM12.8004 29.1175C10.9745 28.8895 9.11247 29.1897 7.10607 30.2841C6.99654 30.3439 6.87628 30.3817 6.75217 30.3951C6.62805 30.4085 6.50251 30.3973 6.38272 30.3622C6.14078 30.2913 5.93691 30.1272 5.81597 29.906C5.75609 29.7964 5.71837 29.6762 5.70496 29.552C5.69155 29.4279 5.70272 29.3024 5.73783 29.1826C5.80874 28.9407 5.97286 28.7368 6.19407 28.6159C8.54247 27.3353 10.8035 26.9534 13.0379 27.2327C15.2457 27.5101 17.3718 28.4297 19.4789 29.6571C21.2953 30.7173 23.4594 30.951 25.5437 30.6641C27.6299 30.3734 29.547 29.5716 30.7972 28.6767C31.0023 28.53 31.2572 28.4709 31.5059 28.5122C31.7546 28.5535 31.9767 28.692 32.1234 28.8971C32.27 29.1021 32.3292 29.3571 32.2878 29.6058C32.2465 29.8545 32.1081 30.0766 31.903 30.2233C30.383 31.3063 28.1733 32.2164 25.804 32.5451C23.429 32.8738 20.8051 32.6306 18.5194 31.2987C16.5244 30.134 14.651 29.3512 12.8004 29.1194" fill="#000000"/>
</svg>
