<svg width="44" height="44" viewBox="0 0 44 44" fill="none" xmlns="http://www.w3.org/2000/svg">
<path fill-rule="evenodd" clip-rule="evenodd" d="M21.676 40.8019C32.239 40.8019 40.8019 32.239 40.8019 21.676C40.8019 11.1131 32.239 2.55012 21.676 2.55012C11.1131 2.55012 2.55012 11.1131 2.55012 21.676C2.55012 32.239 11.1131 40.8019 21.676 40.8019ZM21.676 43.3521C33.6474 43.3521 43.3521 33.6474 43.3521 21.676C43.3521 9.70469 33.6474 0 21.676 0C9.70469 0 0 9.70469 0 21.676C0 33.6474 9.70469 43.3521 21.676 43.3521Z" fill="#000000"/>
<path fill-rule="evenodd" clip-rule="evenodd" d="M19.8696 41.9972V13.999H22.5791V41.9972H19.8696Z" fill="#000000"/>
<path fill-rule="evenodd" clip-rule="evenodd" d="M20.2589 39.567L0.728531 20.0366L2.53174 18.2334L22.0621 37.7638L20.2589 39.567Z" fill="#000000"/>
<path fill-rule="evenodd" clip-rule="evenodd" d="M20.401 29.5085L39.3447 10.5647L41.1479 12.3679L22.2042 31.3117L20.401 29.5085Z" fill="#000000"/>
<path fill-rule="evenodd" clip-rule="evenodd" d="M20.401 37.5232L41.1663 16.7579L42.9695 18.5612L22.2042 39.3264L20.401 37.5232Z" fill="#000000"/>
<path fill-rule="evenodd" clip-rule="evenodd" d="M20.7651 30.9657L3.27858 13.4791L5.08179 11.6759L22.5683 29.1624L20.7651 30.9657Z" fill="#000000"/>
<path fill-rule="evenodd" clip-rule="evenodd" d="M20.7651 22.9511L5.46437 7.65038L7.26758 5.84717L22.5683 21.1479L20.7651 22.9511Z" fill="#000000"/>
<path fill-rule="evenodd" clip-rule="evenodd" d="M20.7873 15.396L9.84219 4.45091L11.1321 3.16101L22.0772 14.1061L20.7873 15.396Z" fill="#000000"/>
<path fill-rule="evenodd" clip-rule="evenodd" d="M19.6722 21.494L34.9729 6.19325L36.7761 7.99646L21.4754 23.2972L19.6722 21.494Z" fill="#000000"/>
<path fill-rule="evenodd" clip-rule="evenodd" d="M20.0052 14.3537L30.9503 3.40859L32.2402 4.69849L21.2951 15.6436L20.0052 14.3537Z" fill="#000000"/>
</svg>
