<svg width="37" height="36" viewBox="0 0 37 36" fill="none" xmlns="http://www.w3.org/2000/svg">
<g clip-path="url(#clip0_21_83)">
<path d="M12.8893 1.18415C9.19242 2.43197 6.00424 4.80037 3.79304 7.94147C1.58185 11.0826 0.464201 14.8308 0.604255 18.6356C0.744308 22.4404 2.13468 26.1013 4.57116 29.0804C7.00763 32.0596 10.3618 34.2 14.1409 35.1873C17.2048 35.9565 20.4148 35.9903 23.495 35.2857C26.2854 34.6759 28.8651 33.3714 30.9817 31.5001C33.1846 29.4929 34.7836 26.9396 35.6067 24.1145C36.5014 21.0423 36.6606 17.8115 36.0721 14.6701H18.8671V21.6141H28.8311C28.632 22.7217 28.2052 23.7787 27.5764 24.7221C26.9476 25.6654 26.1297 26.4756 25.1716 27.1042C23.9548 27.8872 22.5833 28.4141 21.1449 28.651C19.7023 28.912 18.2227 28.912 16.7801 28.651C15.318 28.3569 13.9348 27.7697 12.7187 26.927C10.7651 25.5814 9.2982 23.6699 8.52734 21.4651C7.74344 19.219 7.74344 16.784 8.52734 14.5379C9.07605 12.9635 9.98315 11.53 11.1809 10.3445C12.5516 8.96281 14.287 7.9752 16.1966 7.48999C18.1062 7.00477 20.1163 7.0407 22.0063 7.59384C23.4828 8.03481 24.8329 8.80529 25.9491 9.84384C27.0726 8.75634 28.1942 7.66602 29.3138 6.5729C29.8919 5.98509 30.5221 5.4254 31.0916 4.82352C29.3877 3.2808 27.3877 2.08037 25.2062 1.29102C21.2337 -0.112442 16.887 -0.150159 12.8893 1.18415Z" fill="white"/>
<path d="M12.8893 1.18405C16.8867 -0.151164 21.2334 -0.11444 25.2063 1.28811C27.3882 2.08282 29.3872 3.28903 31.0887 4.83749C30.5106 5.43936 29.9007 6.00186 29.311 6.58686C28.1894 7.67624 27.0688 8.76186 25.9492 9.84374C24.833 8.80519 23.4828 8.03471 22.0064 7.59374C20.117 7.03867 18.107 7.00066 16.1968 7.48389C14.2867 7.96712 12.5503 8.95291 11.1781 10.3331C9.98031 11.5187 9.07321 12.9522 8.52449 14.5266L2.53223 10.0125C4.67709 5.87407 8.3908 2.70849 12.8893 1.18405Z" fill="#E33629"/>
<path d="M0.942414 14.4843C1.26449 12.9312 1.79921 11.4272 2.53226 10.0125L8.52452 14.5378C7.74063 16.7838 7.74063 19.2189 8.52452 21.465C6.52806 22.965 4.53064 24.4725 2.53226 25.9875C0.697146 22.4333 0.137469 18.3839 0.942414 14.4843Z" fill="#F8BD00"/>
<path d="M18.867 14.6672H36.072C36.6605 17.8086 36.5013 21.0394 35.6066 24.1116C34.7835 26.9367 33.1845 29.4901 30.9816 31.4972C29.0478 30.0291 27.1053 28.5722 25.1715 27.1041C26.1302 26.4749 26.9485 25.6638 27.5774 24.7195C28.2062 23.7752 28.6326 22.717 28.831 21.6085H18.867C18.8641 19.2966 18.867 16.9819 18.867 14.6672Z" fill="#587DBD"/>
<path d="M2.5293 25.9876C4.52768 24.4876 6.5251 22.9801 8.52156 21.4651C9.29396 23.6706 10.763 25.5823 12.7188 26.927C13.9386 27.7658 15.3247 28.3482 16.7888 28.637C18.2313 28.898 19.711 28.898 21.1536 28.637C22.592 28.4001 23.9635 27.8732 25.1802 27.0901C27.1141 28.5582 29.0566 30.0151 30.9904 31.4832C28.8741 33.3556 26.2943 34.661 23.5037 35.2717C20.4234 35.9762 17.2135 35.9424 14.1496 35.1732C11.7264 34.5437 9.46297 33.4339 7.50117 31.9135C5.42472 30.3095 3.72878 28.2881 2.5293 25.9876Z" fill="#319F43"/>
</g>
<defs>
<clipPath id="clip0_21_83">
<rect width="37" height="36" fill="white"/>
</clipPath>
</defs>
</svg>
