<svg width="220" height="220" viewBox="0 0 220 220" fill="none" xmlns="http://www.w3.org/2000/svg">
<path fill-rule="evenodd" clip-rule="evenodd" d="M109.941 206.948C163.517 206.948 206.948 163.517 206.948 109.941C206.948 56.3657 163.517 12.9343 109.941 12.9343C56.3657 12.9343 12.9343 56.3657 12.9343 109.941C12.9343 163.517 56.3657 206.948 109.941 206.948ZM109.941 219.882C170.66 219.882 219.882 170.66 219.882 109.941C219.882 49.2223 170.66 0 109.941 0C49.2223 0 0 49.2223 0 109.941C0 170.66 49.2223 219.882 109.941 219.882Z" fill="white"/>
<path fill-rule="evenodd" clip-rule="evenodd" d="M100.779 213.011L100.779 71.0037H114.522L114.522 213.011H100.779Z" fill="white"/>
<path fill-rule="evenodd" clip-rule="evenodd" d="M102.754 200.685L3.69541 101.626L12.8413 92.4805L111.9 191.539L102.754 200.685Z" fill="white"/>
<path fill-rule="evenodd" clip-rule="evenodd" d="M103.474 149.668L199.557 53.5848L208.703 62.7307L112.62 158.814L103.474 149.668Z" fill="white"/>
<path fill-rule="evenodd" clip-rule="evenodd" d="M103.474 190.318L208.796 84.9964L217.942 94.1423L112.62 199.464L103.474 190.318Z" fill="white"/>
<path fill-rule="evenodd" clip-rule="evenodd" d="M105.322 157.059L16.6295 68.3668L25.7754 59.2209L114.467 147.913L105.322 157.059Z" fill="white"/>
<path fill-rule="evenodd" clip-rule="evenodd" d="M105.321 116.408L27.7159 38.8026L36.8618 29.6567L114.467 107.262L105.321 116.408Z" fill="white"/>
<path fill-rule="evenodd" clip-rule="evenodd" d="M105.433 78.0894L49.9191 22.5756L56.4614 16.0332L111.975 71.547L105.433 78.0894Z" fill="white"/>
<path fill-rule="evenodd" clip-rule="evenodd" d="M99.7786 109.017L177.384 31.412L186.53 40.5579L108.925 118.163L99.7786 109.017Z" fill="white"/>
<path fill-rule="evenodd" clip-rule="evenodd" d="M101.467 72.8023L156.98 17.2884L163.523 23.8308L108.009 79.3446L101.467 72.8023Z" fill="white"/>
</svg>
