<svg width="47" height="47" viewBox="0 0 47 47" fill="none" xmlns="http://www.w3.org/2000/svg">
<g clip-path="url(#clip0_22_1054)">
<path d="M41.8229 10.7345C41.8069 10.4593 41.6903 10.1995 41.4954 10.0046C41.3004 9.80964 41.0407 9.69307 40.7654 9.677C33.4867 9.25512 27.6423 11.4686 25.1308 15.6142C23.4714 18.355 23.4742 21.6836 25.1083 24.8589C24.178 25.966 23.4983 27.2612 23.1156 28.6557L20.8276 26.3593C21.9273 24.0629 21.8851 21.6695 20.687 19.6811C18.8308 16.6168 14.5459 14.9743 9.22607 15.2865C8.95085 15.3026 8.69111 15.4192 8.49617 15.6141C8.30122 15.8091 8.18465 16.0688 8.16857 16.344C7.85498 21.6639 9.49889 25.9487 12.5631 27.805C13.5742 28.4229 14.7362 28.7499 15.9212 28.75C17.0714 28.7357 18.2036 28.4632 19.2344 27.9526L22.75 31.4682V35.5C22.75 35.7983 22.8685 36.0845 23.0795 36.2955C23.2905 36.5064 23.5766 36.625 23.875 36.625C24.1733 36.625 24.4595 36.5064 24.6705 36.2955C24.8815 36.0845 25 35.7983 25 35.5V31.3529C24.9949 29.5632 25.6039 27.8258 26.7255 26.4311C28.1724 27.1873 29.7772 27.592 31.4097 27.6123C32.988 27.6174 34.5371 27.1862 35.8858 26.3664C40.0314 23.8576 42.2505 18.0132 41.8229 10.7345ZM13.7233 25.8812C11.5661 24.5748 10.3454 21.4825 10.375 17.5C14.3575 17.4662 17.4498 18.6911 18.7562 20.8482C19.4383 21.9732 19.5494 23.2853 19.1022 24.6367L15.6695 21.204C15.4568 21.002 15.1736 20.891 14.8802 20.8947C14.5869 20.8985 14.3066 21.0167 14.0991 21.2241C13.8917 21.4316 13.7735 21.7119 13.7697 22.0052C13.766 22.2986 13.877 22.5818 14.079 22.7945L17.5117 26.2271C16.1603 26.6743 14.8497 26.5632 13.7233 25.8812ZM34.72 24.444C32.8356 25.5845 30.6208 25.6717 28.3708 24.7253L35.9209 17.1737C36.123 16.961 36.234 16.6778 36.2302 16.3844C36.2265 16.0911 36.1083 15.8108 35.9008 15.6034C35.6934 15.3959 35.4131 15.2777 35.1197 15.2739C34.8264 15.2702 34.5431 15.3812 34.3305 15.5832L26.7789 23.125C25.8283 20.875 25.914 18.6587 27.0601 16.7757C29.0204 13.5414 33.6695 11.7386 39.6222 11.8778C39.7572 17.829 37.9572 22.4837 34.72 24.444Z" fill="black"/>
</g>
<defs>
<clipPath id="clip0_22_1054">
<rect width="47" height="47" fill="white"/>
</clipPath>
</defs>
</svg>
