<svg width="43" height="43" viewBox="0 0 43 43" fill="none" xmlns="http://www.w3.org/2000/svg">
<g clip-path="url(#clip0_22_1046)">
<path d="M21.4999 3.58325C31.3953 3.58325 39.4166 11.6045 39.4166 21.4999C39.4166 31.3953 31.3953 39.4166 21.4999 39.4166C11.6045 39.4166 3.58325 31.3953 3.58325 21.4999C3.58325 11.6045 11.6045 3.58325 21.4999 3.58325ZM21.4999 7.16659C17.6985 7.16659 14.0527 8.6767 11.3647 11.3647C8.6767 14.0527 7.16659 17.6985 7.16659 21.4999C7.16659 25.3014 8.6767 28.9471 11.3647 31.6351C14.0527 34.3231 17.6985 35.8333 21.4999 35.8333C25.3014 35.8333 28.9471 34.3231 31.6351 31.6351C34.3231 28.9471 35.8333 25.3014 35.8333 21.4999C35.8333 17.6985 34.3231 14.0527 31.6351 11.3647C28.9471 8.6767 25.3014 7.16659 21.4999 7.16659ZM21.4999 26.8749C21.9751 26.8749 22.4308 27.0637 22.7668 27.3997C23.1028 27.7357 23.2916 28.1914 23.2916 28.6666C23.2916 29.1418 23.1028 29.5975 22.7668 29.9335C22.4308 30.2695 21.9751 30.4583 21.4999 30.4583C21.0247 30.4583 20.569 30.2695 20.233 29.9335C19.897 29.5975 19.7083 29.1418 19.7083 28.6666C19.7083 28.1914 19.897 27.7357 20.233 27.3997C20.569 27.0637 21.0247 26.8749 21.4999 26.8749ZM21.4999 10.7499C21.9751 10.7499 22.4308 10.9387 22.7668 11.2747C23.1028 11.6107 23.2916 12.0664 23.2916 12.5416V23.2916C23.2916 23.7668 23.1028 24.2225 22.7668 24.5585C22.4308 24.8945 21.9751 25.0833 21.4999 25.0833C21.0247 25.0833 20.569 24.8945 20.233 24.5585C19.897 24.2225 19.7083 23.7668 19.7083 23.2916V12.5416C19.7083 12.0664 19.897 11.6107 20.233 11.2747C20.569 10.9387 21.0247 10.7499 21.4999 10.7499Z" fill="black"/>
</g>
<defs>
<clipPath id="clip0_22_1046">
<rect width="43" height="43" fill="white"/>
</clipPath>
</defs>
</svg>
